# xmcd
#
# Track frame offsets: 
#        150
#        12691
#        24240
#        36358
#        47332
#        56515
#        69395
#        85628
#        100305
#        112717
#        123113
#        134192
#        145515
#        156968
#        170827
#        182147
#        192539
#        203559
#        214951
#        227928
#        243023
#        256332
#        269446
#        281867
#        297076
#        309243
#        323842
#        335254
#        346254
#        357504
#
# Disc length: 4932 seconds
#
# Revision: 1
# Processed by: cddbd v1.5.2PL0 Copyright (c) Steve Scherf et al.
# Submitted via: ExactAudioCopyFreeDBPlugin 1.0
#
DISCID=bf13421e
DTITLE=B.B. King - Complete Recordings 1949-1962 [Enlightenment Record
DTITLE=s]
DYEAR=2015
DGENRE=Blues
TTITLE0=Got the Blues
TTITLE1=Take a Swing with Me
TTITLE2=Miss Martha King
TTITLE3=When Your Baby Packs Up and Goes
TTITLE4=My Baby's Gone
TTITLE5=Walkin' and Cryin'
TTITLE6=The Other Night Blues
TTITLE7=B.B. Boogie
TTITLE8=Mistreated Woman
TTITLE9=I Am
TTITLE10=B.B. Blues
TTITLE11=Shake it Up and Go
TTITLE12=Hard Working Woman
TTITLE13=She Don't Move Me No More
TTITLE14=She's Dynamite
TTITLE15=Fine Looking Woman
TTITLE16=Pray for You
TTITLE17=She is a Mean Woman
TTITLE18=Someday Somewhere
TTITLE19=It's My Own Fault
TTITLE20=Story from My Heart and Soul
TTITLE21=Neighborhood Affair
TTITLE22=Highway Bound
TTITLE23=Can't We Talk it Over
TTITLE24=Worry Worry Worry
TTITLE25=Don't Have to Cry
TTITLE26=You Didn't Want Me
TTITLE27=Gotta Find My Baby
TTITLE28=Bye Bye Baby
TTITLE29=Please Hurry Home
EXTD=
EXTT0=
EXTT1=
EXTT2=
EXTT3=
EXTT4=
EXTT5=
EXTT6=
EXTT7=
EXTT8=
EXTT9=
EXTT10=
EXTT11=
EXTT12=
EXTT13=
EXTT14=
EXTT15=
EXTT16=
EXTT17=
EXTT18=
EXTT19=
EXTT20=
EXTT21=
EXTT22=
EXTT23=
EXTT24=
EXTT25=
EXTT26=
EXTT27=
EXTT28=
EXTT29=
PLAYORDER=
